<svg width="24" height="24" viewBox="0 0 24 24" fill="none" xmlns="http://www.w3.org/2000/svg">
<path d="M14.3221 11.8063C14.3221 12.1636 14.0325 12.4533 13.6752 12.4533H10.2416V16.706H14.353C14.7103 16.706 15 16.9957 15 17.353C15 17.7103 14.7103 18 14.353 18H9.46154C9.20664 18 9 17.7934 9 17.5385V6.45689C9 6.20456 9.20456 6 9.45689 6H14.2885C14.6481 6 14.9396 6.29151 14.9396 6.6511C14.9396 7.01069 14.6481 7.3022 14.2885 7.3022H10.2416V11.1593H13.6752C14.0325 11.1593 14.3221 11.449 14.3221 11.8063Z" fill="white"/>
</svg>
