<svg width="24" height="24" viewBox="0 0 24 24" fill="none" xmlns="http://www.w3.org/2000/svg">
<path d="M13.8038 6.5981C13.8038 6.26778 14.0716 6 14.4019 6C14.7322 6 15 6.26778 15 6.5981V14.2358C14.9916 14.7832 14.9093 15.2873 14.7532 15.748C14.6013 16.2087 14.3924 16.6043 14.1266 16.935C13.8608 17.271 13.5464 17.5339 13.1835 17.7236C12.8249 17.9079 12.4325 18 12.0063 18C11.5759 18 11.1835 17.916 10.8291 17.748C10.4789 17.5799 10.1751 17.3388 9.91772 17.0244C9.65612 16.7154 9.44726 16.3415 9.29114 15.9024C9.19647 15.6329 9.12353 15.3445 9.0723 15.0371C9.01658 14.7028 9.28793 14.4146 9.62691 14.4146C9.94125 14.4146 10.1931 14.6649 10.2518 14.9737C10.2754 15.0977 10.3054 15.2176 10.3418 15.3333C10.4346 15.6152 10.5591 15.8591 10.7152 16.065C10.8713 16.2764 11.057 16.439 11.2722 16.5528C11.4916 16.6667 11.7363 16.7236 12.0063 16.7236C12.2848 16.7236 12.5338 16.6585 12.7532 16.5285C12.9726 16.393 13.1603 16.2114 13.3165 15.9837C13.4684 15.7561 13.5844 15.4932 13.6646 15.1951C13.7489 14.8916 13.7954 14.5718 13.8038 14.2358V6.5981Z" fill="white"/>
</svg>
