<svg width="24" height="24" viewBox="0 0 24 24" fill="none" xmlns="http://www.w3.org/2000/svg">
<path d="M11.0867 13.0714L9.99646 14.4643V17.0018C9.99646 17.5531 9.54954 18 8.99823 18C8.44692 18 8 17.5531 8 17.0018V6.99823C8 6.44692 8.44692 6 8.99823 6C9.54954 6 9.99646 6.44692 9.99646 6.99823V11.4973L10.931 10.0302L13.1399 6.4781C13.3248 6.18078 13.6501 6 14.0002 6C14.8051 6 15.2885 6.89356 14.8482 7.56737C14.0457 8.79521 13.3788 9.81547 12.4035 11.3077L15.1793 16.4728C15.5504 17.1634 15.0502 18 14.2663 18C13.8788 18 13.5236 17.7838 13.3456 17.4396L11.0867 13.0714Z" fill="white"/>
</svg>
