<svg width="24" height="24" viewBox="0 0 24 24" fill="none" xmlns="http://www.w3.org/2000/svg">
<path d="M13.1538 18.1923V14.0075C13.1538 13.7703 13.2312 13.5752 13.386 13.422C13.5408 13.2688 13.7327 13.1923 13.9615 13.1923H20.1923C20.4211 13.1923 20.6129 13.2697 20.7678 13.4245C20.9226 13.5793 21 13.7712 21 14V18.1848C21 18.4218 20.9226 18.6169 20.7678 18.7703C20.6129 18.9234 20.4211 19 20.1923 19H13.9615C13.7327 19 13.5408 18.9226 13.386 18.7678C13.2312 18.6129 13.1538 18.4211 13.1538 18.1923ZM14.1538 18H20V14.1923H14.1538V18Z" fill="#E3E3E3"/>
<path fill-rule="evenodd" clip-rule="evenodd" d="M3 18.1922V14.0075C3 13.7703 3.07742 13.5751 3.23225 13.422C3.38708 13.2688 3.57892 13.1922 3.80775 13.1922H10.0385C10.2673 13.1922 10.4592 13.2696 10.614 13.4245C10.7688 13.5793 10.8463 13.7712 10.8463 14V18.1847C10.8463 18.4217 10.7688 18.6169 10.614 18.7702C10.4592 18.9234 10.2673 19 10.0385 19H3.80775C3.57892 19 3.38708 18.9226 3.23225 18.7677C3.07742 18.6129 3 18.4211 3 18.1922ZM4 18H9.84625V14.1922H4V18Z" fill="#E3E3E3"/>
<path d="M20.7633 7.6595C20.8506 7.57233 20.9118 7.48325 20.947 7.39225C20.9823 7.30125 21 7.20275 21 7.09675C21 6.99075 20.9823 6.89142 20.947 6.79875C20.9118 6.70592 20.8506 6.61592 20.7633 6.52875L17.375 3.14025C17.2813 3.04675 17.1655 3 17.0275 3C16.8895 3 16.7758 3.04567 16.6865 3.137C16.589 3.23667 16.5423 3.35425 16.5465 3.48975C16.5505 3.62542 16.5972 3.73842 16.6865 3.82875L19.4075 6.59425L3.5 6.58041C3.35833 6.58041 3.23958 6.62816 3.14375 6.72366C3.04792 6.81916 3 6.93783 3 7.07966C3 7.22149 3.04792 7.34041 3.14375 7.43641C3.23958 7.53241 3.35833 7.58041 3.5 7.58041L19.4075 7.59425L16.6865 10.3595C16.5928 10.4532 16.546 10.5648 16.546 10.6943C16.546 10.8238 16.5917 10.9342 16.683 11.0255C16.7827 11.1252 16.8995 11.1773 17.0335 11.1818C17.1675 11.1863 17.2813 11.1417 17.375 11.048L20.7633 7.6595Z" fill="#E3E3E3"/>
</svg>
