<svg width="24" height="24" viewBox="0 0 24 24" fill="none" xmlns="http://www.w3.org/2000/svg">
<path d="M10.2104 13.5989V16.8948C10.2104 17.5052 9.7156 18 9.10521 18C8.49482 18 8 17.5052 8 16.8948V6.92308C8 6.41328 8.41328 6 8.92308 6H11.9174C12.5415 6 13.1052 6.09615 13.6087 6.28846C14.1121 6.47527 14.5421 6.73626 14.8987 7.07143C15.2501 7.41209 15.5202 7.81868 15.7089 8.29121C15.903 8.76374 16 9.28846 16 9.86538C16 10.4038 15.903 10.9011 15.7089 11.3571C15.5202 11.8132 15.2501 12.206 14.8987 12.5357C14.5421 12.8709 14.1121 13.1319 13.6087 13.3187C13.1052 13.5055 12.5415 13.5989 11.9174 13.5989H10.2104ZM10.2104 11.7198H11.9174C12.2321 11.7198 12.5048 11.6703 12.7355 11.5714C12.9662 11.4725 13.1603 11.3379 13.3176 11.1676C13.4697 10.9973 13.5824 10.8022 13.6559 10.5824C13.7345 10.3571 13.7738 10.1236 13.7738 9.88187C13.7738 9.60165 13.7345 9.34066 13.6559 9.0989C13.5824 8.85714 13.4697 8.6456 13.3176 8.46429C13.1603 8.28297 12.9662 8.14011 12.7355 8.03571C12.5048 7.93132 12.2321 7.87912 11.9174 7.87912H10.2104V11.7198Z" fill="white"/>
</svg>
