<svg width="24" height="24" viewBox="0 0 24 24" fill="none" xmlns="http://www.w3.org/2000/svg">
<path fill-rule="evenodd" clip-rule="evenodd" d="M9.53975 13.1044H11.9749L14.1678 17.5901C14.2904 17.8409 14.5453 18 14.8245 18C15.3661 18 15.7196 17.4315 15.48 16.9457L13.4226 12.7747C13.7573 12.6319 14.0642 12.4588 14.3431 12.2555C14.622 12.0522 14.8619 11.8187 15.0628 11.5549C15.2636 11.2912 15.4198 10.9973 15.5314 10.6731C15.6485 10.3489 15.7071 9.99176 15.7071 9.60165C15.7071 8.99725 15.5983 8.47253 15.3808 8.02747C15.1688 7.57692 14.8759 7.2033 14.5021 6.90659C14.1227 6.60989 13.682 6.38736 13.1799 6.23901C12.6778 6.09066 12.1423 6.01099 11.5732 6H8.92308C8.41328 6 8 6.41328 8 6.92308V17.2301C8 17.6553 8.34468 18 8.76987 18C9.19506 18 9.53975 17.6553 9.53975 17.2301V13.1044ZM9.53975 11.8516H11.6151C11.9609 11.8462 12.2873 11.794 12.5941 11.6951C12.901 11.5907 13.1715 11.4423 13.4059 11.25C13.6346 11.0577 13.8159 10.8242 13.9498 10.5495C14.0837 10.2692 14.1506 9.9478 14.1506 9.58516C14.1506 9.20055 14.0865 8.86538 13.9582 8.57967C13.8298 8.28846 13.6513 8.04396 13.4226 7.84615C13.1939 7.65385 12.9205 7.50824 12.6025 7.40934C12.2901 7.31044 11.947 7.25824 11.5732 7.25275H9.53975V11.8516Z" fill="white"/>
</svg>
