<svg width="24" height="24" viewBox="0 0 24 24" fill="none" xmlns="http://www.w3.org/2000/svg">
<path d="M9.72633 18C9.27566 18 8.89611 17.6632 8.84255 17.2157L7.59427 6.78756C7.54413 6.36863 7.87126 6 8.29318 6C8.65401 6 8.95641 6.27286 8.99337 6.63179L9.78043 14.2747L9.82913 14.7527L9.9184 14.2582L11.2353 6.64399C11.2997 6.27183 11.6226 6 12.0003 6C12.3777 6 12.7005 6.27151 12.7651 6.64339L14.0897 14.2665L14.179 14.7527L14.2277 14.2582L15.015 6.62812C15.0518 6.27125 15.3525 6 15.7113 6C16.1308 6 16.4561 6.36657 16.4063 6.78315L15.1569 17.2202C15.1037 17.6651 14.7263 18 14.2783 18C13.8462 18 13.4773 17.688 13.4056 17.2619L12.0933 9.46154L12.0122 8.95879L11.9229 9.46978L10.6039 17.2585C10.5314 17.6867 10.1606 18 9.72633 18Z" fill="white"/>
</svg>
