<svg width="24" height="24" viewBox="0 0 24 24" fill="none" xmlns="http://www.w3.org/2000/svg">
<path d="M11.9832 10.3022L13.4703 6.61855C13.6212 6.24475 13.984 6 14.3871 6C15.1088 6 15.5873 6.74818 15.2846 7.40331L13.1836 11.9505L15.3498 16.6033C15.6529 17.2544 15.1775 18 14.4594 18C14.0608 18 13.7018 17.7591 13.5506 17.3903L12.0101 13.6319L10.4787 17.382C10.3261 17.7557 9.96247 18 9.55874 18C8.83213 18 8.35121 17.2456 8.65789 16.5869L10.8164 11.9505L8.7156 7.39253C8.41582 6.74213 8.89093 6 9.60709 6C10.0093 6 10.3708 6.24532 10.5193 6.61906L11.9832 10.3022Z" fill="white"/>
</svg>
