<svg width="24" height="24" viewBox="0 0 24 24" fill="none" xmlns="http://www.w3.org/2000/svg">
<path d="M15.3555 5.875C16.1208 5.87508 16.579 6.72593 16.1582 7.36523L13.1396 11.9502L16.2529 16.6475C16.6721 17.2802 16.219 18.1248 15.46 18.125C15.131 18.125 14.8251 17.9551 14.6514 17.6758L12.0176 13.4404L9.37988 17.6719C9.20398 17.9538 8.8948 18.125 8.5625 18.125C7.79421 18.1248 7.33559 17.2689 7.76074 16.6289L10.8682 11.9502L7.8457 7.35742C7.42714 6.7215 7.88322 5.875 8.64453 5.875C8.97784 5.87505 9.2873 6.04851 9.46094 6.33301L11.9814 10.4668L14.5371 6.33105C14.7123 6.04751 15.0222 5.875 15.3555 5.875Z" fill="white" stroke="white" stroke-width="0.25"/>
</svg>
